PathFileType	4	(X/Y/Z)	T1_P2_NoVision_Movement_3_0-732.trc
DataRate	CameraRate	NumFrames	NumMarkers	Units	OrigDataRate	OrigDataStartFrame	OrigNumFrames
60	60	4	27	m	60	274	732
Frame#	Time	RHip			RKnee			RAnkle			RBigToe			RSmallToe			RHeel			LHip			LKnee			LAnkle			LBigToe			LSmallToe			LHeel			Neck			Head			Nose			RShoulder			RElbow			RWrist			RThumb			RIndex			RPinky			LShoulder			LElbow			LWrist			LThumb			LIndex			LPinky		
		X1	Y1	Z1	X2	Y2	Z2	X3	Y3	Z3	X4	Y4	Z4	X5	Y5	Z5	X6	Y6	Z6	X7	Y7	Z7	X8	Y8	Z8	X9	Y9	Z9	X10	Y10	Z10	X11	Y11	Z11	X12	Y12	Z12	X13	Y13	Z13	X14	Y14	Z14	X15	Y15	Z15	X16	Y16	Z16	X17	Y17	Z17	X18	Y18	Z18	X19	Y19	Z19	X20	Y20	Z20	X21	Y21	Z21	X22	Y22	Z22	X23	Y23	Z23	X24	Y24	Z24	X25	Y25	Z25	X26	Y26	Z26	X27	Y27	Z27
275	4.583333333333333	461.1434783572869	3598.6858086351776	552.0847081423401	858.676070580235	3612.982594118491	549.0911539607807	1241.7284384202978	3701.9091979541886	623.4343277852084	1331.4325577961483	3609.7404428162426	607.1779693369385	1301.8506445617181	3617.5332856215055	543.1402830043037	1263.4087470276095	3689.5480681023864	623.8956592984243	474.0008020854902	3499.8866654119265	747.6133097331331	883.3097990081809	3546.9861349227135	759.1107021492029	1236.7680907742874	3603.6060547758893	730.4610075370008	1332.0288242530619	3563.0722332482474	685.4078920069736	1280.6307041616028	3478.4235204125066	716.644466197037	1274.2348005209371	3619.029574320803	724.9865331027311	-117.07837962680522	3561.143987253875	682.082141364154	-382.40057747043693	3494.6928486414436	641.349940004146	-232.58982776736855	3381.5021389596936	596.4953679289699	-40.20064525252166	3645.011961905947	547.0666892098773	208.5142216298296	3757.4158259950023	498.83577996985883	427.78441546472294	3638.0821113135626	416.8092252921064	537.4527913645699	3510.990380494647	400.16789549535923	546.4771624942573	3517.6171100812153	376.8319545818328	553.6775807838405	3638.4174829454846	395.4504783739175	-17.804689705947958	3514.010612893784	850.9175920394168	245.78750721446522	3479.060199324542	878.3118567783857	492.1223617267063	3449.820612162415	869.1716390993873	603.7148794487654	3437.0032107231973	829.7292246278612	601.6178416934763	3369.748057693217	821.2349149578463	607.1504859962143	3388.2507963432167	889.5310667449514
276	4.6	461.00440273220795	3598.43346340772	551.783074231589	863.4428874085933	3615.2120166035693	550.6898037385881	1241.7462054484433	3702.114806264535	623.5000076128591	1331.60033190876	3610.162602413013	607.5050073478637	1308.057822790973	3621.925263714833	544.055857310324	1269.577439711393	3691.318532715146	628.8949490188288	465.1906585579103	3481.3430678979885	732.8587195680633	875.5912399183663	3505.635824725174	735.8447459783454	1236.762703209393	3601.2085387251545	734.5753485021248	1332.0089824957038	3562.994704817405	685.4028124984067	1286.4593148107633	3482.2024394335654	717.5827336807891	1274.1176213989177	3619.172038395517	725.1437621689264	-125.84482056041239	3563.817577915431	683.8014683171813	-387.045918071016	3498.5768444030737	643.4609206289605	-232.76329730926642	3381.7882185743715	596.8726993538788	-40.313922361765584	3644.9564875196224	547.0803282711199	208.33177055844743	3757.3291576214965	498.89155403264107	427.7949463151006	3638.227512316258	416.8598807862355	540.2695099099356	3507.3031201546437	398.36997187074627	546.4089175656214	3517.399985074913	376.7628565273689	553.7353692517701	3638.7348984880273	395.60004200647614	-17.893865080912263	3514.0223117209234	850.920242487389	241.70503132246176	3477.7536830194413	877.4554613154286	492.04955699253577	3449.9800650989077	869.3100103434612	603.72514804253	3436.579222439917	829.5104104526803	594.0076629381047	3337.5199496118535	801.8825625718765	607.1547577323001	3388.0226959331326	889.3011572482857
277	4.616666666666666	465.4954426711516	3594.4146713063487	549.7337565288105	874.6923594616342	3634.795944855792	565.6449796248847	1248.004793982787	3704.0162779709285	625.4227484021462	1331.460176939837	3612.081157943766	602.5432674827624	1301.7781533696045	3617.43151471646	542.9953516884495	1279.327224079219	3702.334376566501	636.3569642898607	473.37986930528973	3497.866188054401	747.2190342746254	885.8856030598932	3527.9560861270093	743.5599111334732	1232.5774335533338	3594.5919327297106	726.843667488925	1332.0220511438981	3562.4720730208574	685.327721132953	1278.7982217368165	3464.9798075042595	704.8480261394616	1274.2711921086243	3618.5288974405544	724.8308108131959	-117.1040904720603	3561.338853634171	682.2153229575555	-382.41284810933286	3494.7013053302576	641.5777376807401	-232.67432765788985	3381.7820556949487	596.8801164491061	-40.213014242888704	3645.28760549116	547.1162382988845	203.67062846870314	3756.079042031915	498.3474527753164	427.718370555889	3638.4959771831764	416.88165722799596	537.2584363422633	3512.735820771293	396.2521964975404	546.3522514090419	3517.647621673552	376.6633704437551	558.2365710157452	3640.181209040501	396.2329118979921	-21.93213953618712	3518.3046061187283	853.3582751515295	241.62087209297107	3477.5339161099614	877.2466779152977	492.01369990013853	3449.7367369192634	869.1513948926453	599.6925755096211	3416.2849705843255	821.8116643717393	594.0160864595529	3337.147806118474	801.6158928908932	607.6823412736744	3391.4167911022214	885.6881317641335
278	4.633333333333334	461.4261189276346	3599.4166066728517	552.3232862471928	874.6372637828772	3634.7482645873015	565.6011613787126	1242.0333228385516	3702.243738593136	623.7403062963772	1331.5324831938121	3610.156997409731	607.2430837193539	1301.7886979386742	3617.824331394023	543.1326849027691	1269.1689208561984	3691.0155408409096	625.4281705629124	473.3249152861475	3498.0611329449084	747.2980435764615	886.0670143832047	3528.2534150284855	743.7142536987715	1238.851598442799	3595.973024750917	731.7340696697212	1331.8235835420905	3562.8085388712543	685.3371976494903	1273.216315584803	3463.5636807082346	703.5378902860458	1274.162126545068	3618.6436387310896	724.8890881531703	-116.70554315503935	3577.1782953250536	696.0622398062759	-382.3737560949866	3494.9033146229576	641.6394523359945	-232.66183294861645	3381.977750869256	597.0357124167656	-35.6567487205296	3649.2274338667526	548.665113842718	208.46514977633595	3758.0172178226317	499.27792969409006	427.72008340583983	3638.6240233389476	416.9738000616352	537.2338663796828	3512.9868509064536	396.30041901353604	546.3340234077805	3517.7865010756573	376.6827656559947	558.4113906037135	3639.736781821559	396.1558976437234	-21.92084779424904	3518.602578513459	853.4942277080739	237.33920723963277	3482.065594731151	880.1735777822068	491.96250869111515	3449.846546232318	869.1703040178814	599.6234762518214	3415.994195285666	821.6546767891168	593.8678437703684	3336.983011683983	801.4190193660902	607.5078540029797	3391.2046713443588	885.4033889885579
